<?xml version="1.0" encoding="UTF-8" standalone="no"?>
<!-- Created with Inkscape (http://www.inkscape.org/) -->

<svg
   width="100mm"
   height="100mm"
   viewBox="0 0 100 100"
   version="1.1"
   id="svg1"
   xml:space="preserve"
   inkscape:version="1.4 (86a8ad7, 2024-10-11)"
   sodipodi:docname="Logo.svg"
   inkscape:export-filename="logo_icon512.png"
   inkscape:export-xdpi="130.048"
   inkscape:export-ydpi="130.048"
   xmlns:inkscape="http://www.inkscape.org/namespaces/inkscape"
   xmlns:sodipodi="http://sodipodi.sourceforge.net/DTD/sodipodi-0.dtd"
   xmlns="http://www.w3.org/2000/svg"
   xmlns:svg="http://www.w3.org/2000/svg"><sodipodi:namedview
     id="namedview1"
     pagecolor="#ffffff"
     bordercolor="#000000"
     borderopacity="0.25"
     inkscape:showpageshadow="2"
     inkscape:pageopacity="0.0"
     inkscape:pagecheckerboard="0"
     inkscape:deskcolor="#d1d1d1"
     inkscape:document-units="mm"
     showguides="true"
     inkscape:zoom="1.0721378"
     inkscape:cx="407.59687"
     inkscape:cy="270.95399"
     inkscape:window-width="1920"
     inkscape:window-height="1111"
     inkscape:window-x="-9"
     inkscape:window-y="-9"
     inkscape:window-maximized="1"
     inkscape:current-layer="layer1" /><defs
     id="defs1" /><g
     inkscape:label="Layer 1"
     inkscape:groupmode="layer"
     id="layer1"><g
       style="overflow:hidden"
       id="g1"
       transform="matrix(0.04618778,0,0,0.04621489,-11.268095,-0.00662882)"><g
         transform="translate(247,3)"
         id="g7"><path
           d="M 60.9998,1078.5 C 60.9998,516.55 516.55,60.9998 1078.5,60.9998 1640.45,60.9998 2096,516.55 2096,1078.5 2096,1640.45 1640.45,2096 1078.5,2096 516.55,2096 60.9998,1640.45 60.9998,1078.5 Z"
           fill="#e8e8e8"
           fill-rule="evenodd"
           id="path1" /><path
           d="m 587.852,1766.8 -22.08,3.99 c -40.853,8.04 -79.769,17.01 -116.466,26.81 l -34.525,10.16 1.269,1.07 -2.169,0.63 64.992,54.62 c 70.662,54.18 148.855,99.02 232.736,132.7 l 51.282,18.55 -39.994,-41.11 c -33.931,-38.78 -65.538,-82.94 -94.393,-131.75 z m 983.298,0 -40.66,75.67 c -28.85,48.81 -60.46,92.97 -94.39,131.75 l -39.99,41.11 51.28,-18.55 c 83.88,-33.67 162.07,-78.52 232.74,-132.7 l 62.55,-52.56 -5.22,-1.54 1.97,-1.66 1.52,-1.52 -31.26,-9.2 c -36.69,-9.8 -75.61,-18.77 -116.46,-26.81 z m -454.25,-41.83 v 340.68 l 14.36,-0.72 4.37,-0.4 c 129.17,-23.66 245.11,-128.11 332.03,-284.89 l 13.9,-27.59 -16.43,-2.49 c -88.89,-12.17 -184.42,-20.26 -284.33,-23.54 z m -74.8,0 -63.897,1.05 c -99.916,3.28 -195.442,11.37 -284.339,23.54 l -16.428,2.49 13.901,27.59 c 86.922,156.78 202.858,261.23 332.033,284.89 l 4.36,0.4 14.37,0.72 z m 804.73,-1267.384 -4.36,1.821 c -48.82,18.505 -102.29,35.244 -159.69,49.944 l -57.73,13.295 15.27,42.538 c 12.28,38.222 23.22,77.839 32.74,118.674 l 3.8,19.787 h -89.8 l -24.87,-96.105 -22.82,-67.759 -39.87,7.281 c -129.09,20.698 -271.02,32.142 -420,32.142 -148.979,0 -290.906,-11.445 -419.995,-32.142 l -39.874,-7.281 -22.822,67.759 -24.867,96.105 h -89.801 l 3.795,-19.787 c 9.518,-40.835 20.466,-80.452 32.739,-118.674 l 15.276,-42.538 -57.73,-13.295 C 418.818,494.65 365.347,477.911 316.532,459.407 l -1.721,-0.717 -0.788,1.052 -2.645,-1.103 -51.177,68.438 C 153.666,684.769 91.4592,874.87 91.4592,1079.5 c 0,255.79 97.1978,488.87 256.6748,664.34 l 0.258,0.26 2.237,-0.78 0.601,0.61 41.925,-14.45 c 46.629,-14.58 96.545,-27.71 149.265,-39.2 l 10.594,-2.09 -2.392,-5.41 c -8.596,-21.53 -16.745,-43.61 -24.425,-66.2 l -10.254,-32.88 h 91.267 l 17.096,49.4 15.984,38.55 68.213,-10.75 c 115.683,-16.05 240.64,-24.81 370.997,-24.81 130.36,0 255.31,8.76 371,24.81 l 68.21,10.75 15.98,-38.55 17.1,-49.4 h 91.27 l -10.26,32.88 c -7.68,22.59 -15.83,44.67 -24.42,66.2 l -2.4,5.41 10.6,2.09 c 52.72,11.49 102.63,24.62 149.26,39.21 l 38.71,13.33 1.77,-1.79 5.34,1.84 56.02,-67.47 c 125.44,-165.65 199.86,-372.09 199.86,-595.9 0,-204.63 -62.21,-394.73 -168.74,-552.423 z M 762.095,144.49 728.462,155.637 C 596.813,205.687 478.631,283.069 380.85,380.85 l -11.312,12.446 2.866,1.021 -0.233,0.257 6.779,2.414 c 39.219,12.697 81.711,24.335 127.031,34.768 l 58.828,12.371 22.53,-50.971 C 626.333,313.221 672,242.947 722.897,184.776 Z m 634.805,0 39.2,40.286 c 50.9,58.171 96.56,128.445 135.56,208.38 l 22.53,50.972 58.83,-12.372 c 45.32,-10.433 87.81,-22.071 127.03,-34.768 l 9.64,-3.435 -11.54,-12.703 C 1680.37,283.069 1562.19,205.687 1430.54,155.637 Z m -280,-51.1415 V 490.32 l 63.9,-1.045 c 87.42,-2.874 171.49,-9.429 250.69,-19.177 l 75.7,-10.54 -4.1,-9.88 C 1413.59,254.073 1283.26,121.513 1135.63,94.4706 l -4.36,-0.3963 z m -74.8,0 -14.38,0.7258 -4.35,0.3963 C 875.741,121.513 745.404,254.073 655.907,449.678 l -4.096,9.88 75.696,10.54 c 79.205,9.748 163.27,16.303 250.697,19.177 l 63.896,1.045 z m 37.4,-92.848664 0.02,7.22e-4 55.51,1.403592 C 1410.89,15.8878 1659.41,133.475 1842.47,316.532 l 38.05,41.866 31.59,34.758 20.17,26.979 41.94,56.086 c 116.34,172.209 184.28,379.811 184.28,603.279 0,252.57 -86.78,484.86 -232.14,668.71 l -25.73,29.61 2.18,0.91 -41.77,48.08 -19,18.17 -2.53,-0.91 -51.44,49.19 c -176.54,153.85 -403.62,251.19 -653.05,263.84 l -18.12,0.45 v 0.95 h -37.4 -37.4 v -0.95 l -18.13,-0.45 C 774.551,2144.45 547.473,2047.11 370.93,1893.26 l -53.721,-51.37 -0.513,0.18 -18.046,-17.26 -39.687,-45.68 0.404,-0.16 -26.726,-30.76 C 87.2766,1564.36 0.5,1332.07 0.5,1079.5 0.5,856.031 68.4333,648.43 184.776,476.221 l 41.94,-56.087 0.728,0.369 19.885,-26.591 31.96,-35.164 -0.808,-0.35 38.051,-41.866 C 499.589,133.475 748.115,15.8878 1023.97,1.90415 l 55.51,-1.403231 z"
           stroke="#042433"
           stroke-width="6.875"
           stroke-miterlimit="8"
           fill="#00152b"
           fill-rule="evenodd"
           id="path2" /><text
           fill="#c00000"
           font-family="'Roboto Slab', 'Roboto Slab_MSFontService', sans-serif"
           font-weight="400"
           font-size="917px"
           transform="translate(303.036,1438)"
           id="text2">T</text><text
           fill="#c00000"
           font-family="'Roboto Slab', 'Roboto Slab_MSFontService', sans-serif"
           font-weight="400"
           font-size="917px"
           transform="translate(932.098,1438)"
           id="text3"></text><text
           fill="#00b050"
           font-family="'Roboto Slab', 'Roboto Slab_MSFontService', sans-serif"
           font-weight="400"
           font-size="917px"
           transform="translate(1208.08,1438)"
           id="text4">X</text><text
           fill="#00b050"
           font-family="'Roboto Slab', 'Roboto Slab_MSFontService', sans-serif"
           font-weight="400"
           font-size="917px"
           transform="translate(1892.72,1438)"
           id="text5"></text><text
           fill="#0070c0"
           font-family="'Roboto Slab', 'Roboto Slab_MSFontService', sans-serif"
           font-weight="400"
           font-size="917px"
           transform="translate(782.994,1537)"
           id="text6">E</text><text
           fill="#0070c0"
           font-family="'Roboto Slab', 'Roboto Slab_MSFontService', sans-serif"
           font-weight="400"
           font-size="917px"
           transform="translate(1367.37,1537)"
           id="text7"></text></g></g></g></svg>
